<svg width="50" height="50" viewBox="0 0 50 50" fill="none" xmlns="http://www.w3.org/2000/svg">
<g clip-path="url(#clip0_267_1294)">
<path d="M15.875 0.000151635C15.6172 0.0353079 15.3789 0.168121 15.2188 0.375152L10.2188 6.37515C9.97656 6.67593 9.92969 7.08609 10.0977 7.43375C10.2656 7.7814 10.6172 8.00015 11 8.00015H21C21.3828 8.00015 21.7344 7.7814 21.9023 7.43375C22.0703 7.08609 22.0234 6.67593 21.7812 6.37515L16.7812 0.375152C16.5664 0.101715 16.2227 -0.0428172 15.875 0.000151635ZM29.8125 0.000151635C29.4609 0.0626516 29.1719 0.308746 29.0469 0.640777C28.9258 0.976715 28.9922 1.35171 29.2188 1.62515L34.2188 7.62515C34.4102 7.86343 34.6953 8.00015 35 8.00015C35.3047 8.00015 35.5898 7.86343 35.7812 7.62515L40.7812 1.62515C41.0234 1.32437 41.0703 0.914215 40.9023 0.566558C40.7344 0.218902 40.3828 0.000151635 40 0.000151635H30C29.9688 0.000151635 29.9375 0.000151635 29.9062 0.000151635C29.875 0.000151635 29.8438 0.000151635 29.8125 0.000151635ZM32.125 2.00015H37.875L35 5.43765L32.125 2.00015ZM16 2.56265L18.875 6.00015H13.125L16 2.56265ZM3 10.0002C1.35547 10.0002 0 11.3556 0 13.0002V47.0002C0 48.6447 1.35547 50.0002 3 50.0002H47C48.6445 50.0002 50 48.6447 50 47.0002V13.0002C50 11.3556 48.6445 10.0002 47 10.0002H3ZM3 12.0002H47C47.5547 12.0002 48 12.4455 48 13.0002V47.0002C48 47.5548 47.5547 48.0002 47 48.0002H3C2.44531 48.0002 2 47.5548 2 47.0002V13.0002C2 12.4455 2.44531 12.0002 3 12.0002ZM11 14.0002C8.80078 14.0002 7 15.8009 7 18.0002C7 20.1994 8.80078 22.0002 11 22.0002C13.1992 22.0002 15 20.1994 15 18.0002C15 15.8009 13.1992 14.0002 11 14.0002ZM11 22.0002C7.67578 22.0002 5 24.6759 5 28.0002V35.0002C4.99609 35.3869 5.21484 35.7384 5.5625 35.9064L7 36.6252V45.0002C7 45.5509 7.44922 46.0002 8 46.0002H14C14.5508 46.0002 15 45.5509 15 45.0002V36.6252L16.4375 35.9064C16.7852 35.7384 17.0039 35.3869 17 35.0002V28.0002C17 24.6759 14.3242 22.0002 11 22.0002ZM25 14.0002C22.8008 14.0002 21 15.8009 21 18.0002C21 20.1994 22.8008 22.0002 25 22.0002C27.1992 22.0002 29 20.1994 29 18.0002C29 15.8009 27.1992 14.0002 25 14.0002ZM25 22.0002C21.6758 22.0002 19 24.6759 19 28.0002V35.0002C18.9961 35.3869 19.2148 35.7384 19.5625 35.9064L21 36.6252V45.0002C21 45.5509 21.4492 46.0002 22 46.0002H28C28.5508 46.0002 29 45.5509 29 45.0002V36.6252L30.4375 35.9064C30.7852 35.7384 31.0039 35.3869 31 35.0002V28.0002C31 24.6759 28.3242 22.0002 25 22.0002ZM39 14.0002C36.8008 14.0002 35 15.8009 35 18.0002C35 20.1994 36.8008 22.0002 39 22.0002C41.1992 22.0002 43 20.1994 43 18.0002C43 15.8009 41.1992 14.0002 39 14.0002ZM39 22.0002C35.6758 22.0002 33 24.6759 33 28.0002V35.0002C32.9961 35.3869 33.2148 35.7384 33.5625 35.9064L35 36.6252V45.0002C35 45.5509 35.4492 46.0002 36 46.0002H42C42.5508 46.0002 43 45.5509 43 45.0002V36.6252L44.4375 35.9064C44.7852 35.7384 45.0039 35.3869 45 35.0002V28.0002C45 24.6759 42.3242 22.0002 39 22.0002ZM11 16.0002C12.1172 16.0002 13 16.883 13 18.0002C13 19.1173 12.1172 20.0002 11 20.0002C9.88281 20.0002 9 19.1173 9 18.0002C9 16.883 9.88281 16.0002 11 16.0002ZM25 16.0002C26.1172 16.0002 27 16.883 27 18.0002C27 19.1173 26.1172 20.0002 25 20.0002C23.8828 20.0002 23 19.1173 23 18.0002C23 16.883 23.8828 16.0002 25 16.0002ZM39 16.0002C40.1172 16.0002 41 16.883 41 18.0002C41 19.1173 40.1172 20.0002 39 20.0002C37.8828 20.0002 37 19.1173 37 18.0002C37 16.883 37.8828 16.0002 39 16.0002ZM11 24.0002C13.2773 24.0002 15 25.7228 15 28.0002V34.3752L13.5625 35.0939C13.2148 35.2619 12.9961 35.6134 13 36.0002V44.0002H9V36.0002C9.00391 35.6134 8.78516 35.2619 8.4375 35.0939L7 34.3752V28.0002C7 25.7228 8.72266 24.0002 11 24.0002ZM25 24.0002C27.2773 24.0002 29 25.7228 29 28.0002V34.3752L27.5625 35.0939C27.2148 35.2619 26.9961 35.6134 27 36.0002V44.0002H23V36.0002C23.0039 35.6134 22.7852 35.2619 22.4375 35.0939L21 34.3752V28.0002C21 25.7228 22.7227 24.0002 25 24.0002ZM39 24.0002C41.2773 24.0002 43 25.7228 43 28.0002V34.3752L41.5625 35.0939C41.2148 35.2619 40.9961 35.6134 41 36.0002V44.0002H37V36.0002C37.0039 35.6134 36.7852 35.2619 36.4375 35.0939L35 34.3752V28.0002C35 25.7228 36.7227 24.0002 39 24.0002Z" fill="#38C680"/>
</g>
<defs>
<clipPath id="clip0_267_1294">
<rect width="50" height="50" fill="white"/>
</clipPath>
</defs>
</svg>
